<?xml version="1.0" encoding="UTF-8"?>

<svg version="1.2" baseProfile="tiny" width="100.4mm" height="70.01mm" viewBox="960 1099 10040 7001" preserveAspectRatio="xMidYMid" fill-rule="evenodd" stroke-width="28.222" stroke-linejoin="round" xmlns="http://www.w3.org/2000/svg" xmlns:ooo="http://xml.openoffice.org/svg/export" xmlns:xlink="http://www.w3.org/1999/xlink" xml:space="preserve">
 <defs class="ClipPathGroup">
  <clipPath id="presentation_clip_path" clipPathUnits="userSpaceOnUse">
   <rect x="960" y="1099" width="10040" height="7001"/>
  </clipPath>
 </defs>
 <defs class="TextShapeIndex">
  <g ooo:slide="id1" ooo:id-list="id3"/>
 </defs>
 <defs class="EmbeddedBulletChars">
  <g id="bullet-char-template(57356)" transform="scale(0.00048828125,-0.00048828125)">
   <path d="M 580,1141 L 1163,571 580,0 -4,571 580,1141 Z"/>
  </g>
  <g id="bullet-char-template(57354)" transform="scale(0.00048828125,-0.00048828125)">
   <path d="M 8,1128 L 1137,1128 1137,0 8,0 8,1128 Z"/>
  </g>
  <g id="bullet-char-template(10146)" transform="scale(0.00048828125,-0.00048828125)">
   <path d="M 174,0 L 602,739 174,1481 1456,739 174,0 Z M 1358,739 L 309,1346 659,739 1358,739 Z"/>
  </g>
  <g id="bullet-char-template(10132)" transform="scale(0.00048828125,-0.00048828125)">
   <path d="M 2015,739 L 1276,0 717,0 1260,543 174,543 174,936 1260,936 717,1481 1274,1481 2015,739 Z"/>
  </g>
  <g id="bullet-char-template(10007)" transform="scale(0.00048828125,-0.00048828125)">
   <path d="M 0,-2 C -7,14 -16,27 -25,37 L 356,567 C 262,823 215,952 215,954 215,979 228,992 255,992 264,992 276,990 289,987 310,991 331,999 354,1012 L 381,999 492,748 772,1049 836,1024 860,1049 C 881,1039 901,1025 922,1006 886,937 835,863 770,784 769,783 710,716 594,584 L 774,223 C 774,196 753,168 711,139 L 727,119 C 717,90 699,76 672,76 641,76 570,178 457,381 L 164,-76 C 142,-110 111,-127 72,-127 30,-127 9,-110 8,-76 1,-67 -2,-52 -2,-32 -2,-23 -1,-13 0,-2 Z"/>
  </g>
  <g id="bullet-char-template(10004)" transform="scale(0.00048828125,-0.00048828125)">
   <path d="M 285,-33 C 182,-33 111,30 74,156 52,228 41,333 41,471 41,549 55,616 82,672 116,743 169,778 240,778 293,778 328,747 346,684 L 369,508 C 377,444 397,411 428,410 L 1163,1116 C 1174,1127 1196,1133 1229,1133 1271,1133 1292,1118 1292,1087 L 1292,965 C 1292,929 1282,901 1262,881 L 442,47 C 390,-6 338,-33 285,-33 Z"/>
  </g>
  <g id="bullet-char-template(9679)" transform="scale(0.00048828125,-0.00048828125)">
   <path d="M 813,0 C 632,0 489,54 383,161 276,268 223,411 223,592 223,773 276,916 383,1023 489,1130 632,1184 813,1184 992,1184 1136,1130 1245,1023 1353,916 1407,772 1407,592 1407,412 1353,268 1245,161 1136,54 992,0 813,0 Z"/>
  </g>
  <g id="bullet-char-template(8226)" transform="scale(0.00048828125,-0.00048828125)">
   <path d="M 346,457 C 273,457 209,483 155,535 101,586 74,649 74,723 74,796 101,859 155,911 209,963 273,989 346,989 419,989 480,963 531,910 582,859 608,796 608,723 608,648 583,586 532,535 482,483 420,457 346,457 Z"/>
  </g>
  <g id="bullet-char-template(8211)" transform="scale(0.00048828125,-0.00048828125)">
   <path d="M -4,459 L 1135,459 1135,606 -4,606 -4,459 Z"/>
  </g>
 </defs>
 <defs class="TextEmbeddedBitmaps"/>
 <g class="SlideGroup">
  <g>
   <g id="id1" class="Slide" clip-path="url(#presentation_clip_path)">
    <g class="Page">
     <g class="com.sun.star.drawing.ClosedBezierShape">
      <g id="id3">
       <path fill="rgb(0,255,0)" stroke="none" d="M 6450,6000 C 6308,6000 6200,6108 6200,6250 6200,6392 6308,6500 6450,6500 6592,6500 6700,6392 6700,6250 6700,6108 6592,6000 6450,6000 Z M 969,1100 L 1718,1106 1730,1170 1701,1161 1701,1198 2865,1743 3744,1785 3755,1622 4314,1644 C 4481,1738 4351,1752 4508,1838 4605,1932 4624,1974 4681,2039 L 4735,2043 4822,2126 4817,2172 C 4838,2183 4834,2202 4840,2226 4913,2271 4864,2315 4876,2360 4893,2426 4922,2476 4954,2509 4962,2530 5047,2541 5058,2599 L 5151,2612 5208,2671 5244,2667 C 5371,2837 5379,2692 5424,2675 5469,2627 5466,2411 5586,2450 5653,2360 5702,2440 5761,2442 5956,2456 5960,2475 6011,2543 6103,2691 6094,2538 6172,2699 6193,2786 6261,2824 6273,2931 6323,3057 6393,3086 6427,3131 6456,3249 6540,3228 6581,3278 6585,3373 6577,3398 6601,3436 6597,3541 6693,3536 6685,3661 6657,3748 6797,3674 6865,3782 6959,3772 6976,3872 7109,3839 L 7205,3848 7271,3906 7279,3877 7359,3865 C 7378,3976 7360,4073 7322,4122 L 7251,4105 7247,4148 7197,4144 7188,4242 7209,4247 7214,4313 7184,4322 7188,4413 7210,4418 7188,5070 C 7160,5141 7152,5145 7170,5192 7193,5249 7186,5279 7193,5323 7224,5387 7224,5447 7238,5502 7258,5578 7318,5545 7342,5711 7442,5990 7716,6105 7712,6288 7709,6359 7803,6367 7817,6456 7909,6480 7837,6597 8064,6568 8245,6560 8095,6656 8278,6626 8333,6729 8400,6759 8495,6754 L 8494,6734 C 8623,6663 8779,6610 8889,6650 8944,6576 9006,6552 9069,6554 9135,6500 9197,6509 9272,6509 9244,6614 9420,6534 9368,6500 L 9652,6260 9650,6091 C 9668,6039 9679,6023 9710,6005 L 9701,5722 C 9711,5686 9714,5689 9742,5665 9768,5537 9906,5506 9984,5474 10126,5454 10234,5440 10355,5346 10450,5374 10482,5290 10700,5333 L 10826,5342 10838,5279 10905,5275 10937,5341 10987,5353 C 11020,5466 10983,5569 10966,5611 10833,5770 10775,5873 10804,5968 L 10750,6043 10712,6049 10733,6076 10752,6078 10764,6059 10820,6053 10825,6132 10782,6143 10781,6162 10757,6159 10759,6176 C 10738,6177 10740,6187 10761,6194 L 10798,6197 10802,6271 10783,6280 10788,6383 C 10761,6392 10757,6398 10764,6422 L 10744,6419 10745,6534 10713,6558 10670,6550 10613,6490 10613,6443 10630,6441 10630,6388 10604,6409 10596,6487 C 10586,6504 10571,6528 10549,6535 L 10473,6537 10382,6749 10310,6744 C 10290,6686 10262,6740 10273,6785 10064,6822 9851,6827 9637,6842 9617,6906 9652,6991 9640,7057 L 9509,7074 9594,7136 C 9622,7152 9621,7172 9618,7191 L 9664,7192 C 9693,7187 9685,7204 9696,7210 9768,7211 9767,7241 9768,7258 9793,7253 9779,7297 9788,7315 L 9866,7343 9848,7497 9398,7527 9264,7790 C 9248,7819 9256,7831 9264,7845 L 9294,7852 9302,7928 9276,7933 9268,8014 9285,8015 9280,8093 9210,8100 9182,8062 9028,7933 9026,7896 9003,7889 8727,7672 8697,7670 C 8698,7640 8676,7657 8666,7650 8628,7629 8631,7630 8627,7591 8607,7535 8551,7574 8540,7535 L 8512,7536 C 8517,7576 8489,7548 8477,7555 8403,7559 8415,7533 8409,7485 8369,7455 8361,7472 8369,7507 L 8299,7513 C 8277,7509 8278,7490 8270,7462 L 8220,7499 C 8229,7541 8212,7531 8188,7535 8107,7578 8082,7662 8038,7649 7938,7648 7855,7720 7817,7761 L 7594,7761 C 7567,7760 7421,7639 7303,7666 7112,7680 7223,7570 6955,7554 6941,7507 6905,7527 6895,7505 6876,7500 6867,7487 6856,7455 L 6793,7462 C 6785,7440 6762,7450 6749,7426 L 6577,7404 C 6461,7400 6526,7351 6358,7298 L 6139,7221 C 5986,7181 6069,7157 5916,7100 5829,7061 5828,6991 5729,6916 5657,6871 5707,6980 5558,6898 5480,6843 5467,6929 5338,6817 5237,6844 5183,6780 5140,6704 5081,6678 5113,6610 4900,6521 4856,6467 4779,6445 4710,6412 4578,6373 4669,6271 4581,6273 4539,6219 4489,6148 4476,6094 4493,6002 4370,6004 4447,5908 L 4530,5908 4532,5893 C 4620,5894 4585,5849 4556,5843 4547,5836 4575,5839 4502,5833 L 4506,5778 4587,5684 4585,5569 4563,5540 4529,5541 4518,5483 4452,5378 4460,5202 C 4388,5098 4292,4999 4201,4920 4171,4822 4111,4751 4044,4694 L 4045,4655 3993,4618 3983,4592 3810,4428 3784,4429 C 3591,4301 3815,4193 3610,4145 L 3573,4139 3575,4112 3460,4051 3452,4017 C 3276,4042 3367,3946 3257,3934 3214,3803 3269,3722 3344,3668 L 3258,3574 3249,3537 C 2983,3540 3233,3415 3021,3377 2734,3276 3057,3084 2780,3067 2682,3044 2723,2999 2692,2961 2639,2886 2550,2846 2511,2763 2501,2694 2490,2704 2464,2690 L 2407,2596 C 2424,2436 2374,2496 2360,2488 L 2350,2408 2256,2274 2251,2140 2234,2136 2229,2062 2160,1965 2159,1871 C 2211,1818 2147,1703 2042,1715 L 1996,1671 C 1972,1569 1929,1597 1919,1620 L 1843,1628 1729,1528 1683,1527 1678,1565 C 1609,1568 1624,1825 1676,1793 L 1677,2107 C 1679,2194 1755,2144 1741,2241 L 1787,2237 1829,2272 1831,2304 1957,2440 1958,2469 1999,2521 1999,2595 2058,2599 2116,2681 C 2107,2774 2126,2791 2192,2791 L 2221,2966 C 2224,3086 2284,3097 2326,3121 2353,3215 2386,3275 2440,3320 L 2433,3365 C 2446,3390 2441,3416 2450,3436 2452,3477 2462,3509 2497,3534 2511,3491 2483,3456 2476,3417 L 2510,3410 2542,3452 2574,3465 2582,3536 2610,3545 C 2606,3610 2617,3643 2641,3666 L 2637,3814 C 2654,3868 2677,3920 2711,3926 2762,3992 2749,4078 2778,4105 2837,4135 2842,4237 2806,4281 2792,4407 2877,4429 2913,4445 L 2915,4388 2967,4381 C 3002,4444 3049,4499 3098,4519 L 3089,4569 3118,4585 3128,4650 C 3225,4707 3221,4720 3202,4817 L 3195,4862 3047,4977 2976,4970 C 2924,4905 2991,4876 2877,4701 L 2835,4697 2785,4645 C 2721,4545 2616,4450 2524,4391 L 2462,4330 2459,4298 2437,4280 2409,4278 2389,4252 C 2385,4209 2355,4205 2325,4213 L 2294,4186 2286,4113 C 2290,4093 2295,4075 2310,4073 L 2310,4000 C 2360,3955 2327,3803 2313,3779 L 2308,3737 C 2275,3729 2279,3695 2277,3661 2109,3604 2136,3538 2005,3449 1925,3374 1861,3490 1802,3337 1707,3315 1754,3294 1707,3266 1624,3249 1601,3253 1594,3161 L 1447,3010 1447,2955 1529,2963 1569,3009 1620,3008 1655,2999 1722,3060 1760,3068 1809,3124 1839,3104 1812,3057 C 1854,3002 1794,2974 1767,3005 L 1730,2996 1693,2976 1686,2918 1746,2916 1741,2803 C 1791,2742 1763,2698 1725,2679 1708,2620 1662,2589 1626,2552 1594,2474 1512,2377 1451,2374 1429,2328 1413,2314 1382,2319 L 1296,2236 C 1301,2191 1293,2163 1274,2145 1290,2007 1271,1990 1204,1981 1252,1835 1204,1800 1157,1755 1163,1680 1140,1654 1110,1623 1108,1586 1104,1567 1073,1551 1080,1421 1009,1271 961,1176 L 969,1100 Z"/>
       <path fill="none" stroke="rgb(0,128,0)" d="M 6450,6000 C 6308,6000 6200,6108 6200,6250 6200,6392 6308,6500 6450,6500 6592,6500 6700,6392 6700,6250 6700,6108 6592,6000 6450,6000 Z"/>
       <path fill="none" stroke="rgb(0,128,0)" d="M 969,1100 L 1718,1106 1730,1170 1701,1161 1701,1198 2865,1743 3744,1785 3755,1622 4314,1644 C 4481,1738 4351,1752 4508,1838 4605,1932 4624,1974 4681,2039 L 4735,2043 4822,2126 4817,2172 C 4838,2183 4834,2202 4840,2226 4913,2271 4864,2315 4876,2360 4893,2426 4922,2476 4954,2509 4962,2530 5047,2541 5058,2599 L 5151,2612 5208,2671 5244,2667 C 5371,2837 5379,2692 5424,2675 5469,2627 5466,2411 5586,2450 5653,2360 5702,2440 5761,2442 5956,2456 5960,2475 6011,2543 6103,2691 6094,2538 6172,2699 6193,2786 6261,2824 6273,2931 6323,3057 6393,3086 6427,3131 6456,3249 6540,3228 6581,3278 6585,3373 6577,3398 6601,3436 6597,3541 6693,3536 6685,3661 6657,3748 6797,3674 6865,3782 6959,3772 6976,3872 7109,3839 L 7205,3848 7271,3906 7279,3877 7359,3865 C 7378,3976 7360,4073 7322,4122 L 7251,4105 7247,4148 7197,4144 7188,4242 7209,4247 7214,4313 7184,4322 7188,4413 7210,4418 7188,5070 C 7160,5141 7152,5145 7170,5192 7193,5249 7186,5279 7193,5323 7224,5387 7224,5447 7238,5502 7258,5578 7318,5545 7342,5711 7442,5990 7716,6105 7712,6288 7709,6359 7803,6367 7817,6456 7909,6480 7837,6597 8064,6568 8245,6560 8095,6656 8278,6626 8333,6729 8400,6759 8495,6754 L 8494,6734 C 8623,6663 8779,6610 8889,6650 8944,6576 9006,6552 9069,6554 9135,6500 9197,6509 9272,6509 9244,6614 9420,6534 9368,6500 L 9652,6260 9650,6091 C 9668,6039 9679,6023 9710,6005 L 9701,5722 C 9711,5686 9714,5689 9742,5665 9768,5537 9906,5506 9984,5474 10126,5454 10234,5440 10355,5346 10450,5374 10482,5290 10700,5333 L 10826,5342 10838,5279 10905,5275 10937,5341 10987,5353 C 11020,5466 10983,5569 10966,5611 10833,5770 10775,5873 10804,5968 L 10750,6043 10712,6049 10733,6076 10752,6078 10764,6059 10820,6053 10825,6132 10782,6143 10781,6162 10757,6159 10759,6176 C 10738,6177 10740,6187 10761,6194 L 10798,6197 10802,6271 10783,6280 10788,6383 C 10761,6392 10757,6398 10764,6422 L 10744,6419 10745,6534 10713,6558 10670,6550 10613,6490 10613,6443 10630,6441 10630,6388 10604,6409 10596,6487 C 10586,6504 10571,6528 10549,6535 L 10473,6537 10382,6749 10310,6744 C 10290,6686 10262,6740 10273,6785 10064,6822 9851,6827 9637,6842 9617,6906 9652,6991 9640,7057 L 9509,7074 9594,7136 C 9622,7152 9621,7172 9618,7191 L 9664,7192 C 9693,7187 9685,7204 9696,7210 9768,7211 9767,7241 9768,7258 9793,7253 9779,7297 9788,7315 L 9866,7343 9848,7497 9398,7527 9264,7790 C 9248,7819 9256,7831 9264,7845 L 9294,7852 9302,7928 9276,7933 9268,8014 9285,8015 9280,8093 9210,8100 9182,8062 9028,7933 9026,7896 9003,7889 8727,7672 8697,7670 C 8698,7640 8676,7657 8666,7650 8628,7629 8631,7630 8627,7591 8607,7535 8551,7574 8540,7535 L 8512,7536 C 8517,7576 8489,7548 8477,7555 8403,7559 8415,7533 8409,7485 8369,7455 8361,7472 8369,7507 L 8299,7513 C 8277,7509 8278,7490 8270,7462 L 8220,7499 C 8229,7541 8212,7531 8188,7535 8107,7578 8082,7662 8038,7649 7938,7648 7855,7720 7817,7761 L 7594,7761 C 7567,7760 7421,7639 7303,7666 7112,7680 7223,7570 6955,7554 6941,7507 6905,7527 6895,7505 6876,7500 6867,7487 6856,7455 L 6793,7462 C 6785,7440 6762,7450 6749,7426 L 6577,7404 C 6461,7400 6526,7351 6358,7298 L 6139,7221 C 5986,7181 6069,7157 5916,7100 5829,7061 5828,6991 5729,6916 5657,6871 5707,6980 5558,6898 5480,6843 5467,6929 5338,6817 5237,6844 5183,6780 5140,6704 5081,6678 5113,6610 4900,6521 4856,6467 4779,6445 4710,6412 4578,6373 4669,6271 4581,6273 4539,6219 4489,6148 4476,6094 4493,6002 4370,6004 4447,5908 L 4530,5908 4532,5893 C 4620,5894 4585,5849 4556,5843 4547,5836 4575,5839 4502,5833 L 4506,5778 4587,5684 4585,5569 4563,5540 4529,5541 4518,5483 4452,5378 4460,5202 C 4388,5098 4292,4999 4201,4920 4171,4822 4111,4751 4044,4694 L 4045,4655 3993,4618 3983,4592 3810,4428 3784,4429 C 3591,4301 3815,4193 3610,4145 L 3573,4139 3575,4112 3460,4051 3452,4017 C 3276,4042 3367,3946 3257,3934 3214,3803 3269,3722 3344,3668 L 3258,3574 3249,3537 C 2983,3540 3233,3415 3021,3377 2734,3276 3057,3084 2780,3067 2682,3044 2723,2999 2692,2961 2639,2886 2550,2846 2511,2763 2501,2694 2490,2704 2464,2690 L 2407,2596 C 2424,2436 2374,2496 2360,2488 L 2350,2408 2256,2274 2251,2140 2234,2136 2229,2062 2160,1965 2159,1871 C 2211,1818 2147,1703 2042,1715 L 1996,1671 C 1972,1569 1929,1597 1919,1620 L 1843,1628 1729,1528 1683,1527 1678,1565 C 1609,1568 1624,1825 1676,1793 L 1677,2107 C 1679,2194 1755,2144 1741,2241 L 1787,2237 1829,2272 1831,2304 1957,2440 1958,2469 1999,2521 1999,2595 2058,2599 2116,2681 C 2107,2774 2126,2791 2192,2791 L 2221,2966 C 2224,3086 2284,3097 2326,3121 2353,3215 2386,3275 2440,3320 L 2433,3365 C 2446,3390 2441,3416 2450,3436 2452,3477 2462,3509 2497,3534 2511,3491 2483,3456 2476,3417 L 2510,3410 2542,3452 2574,3465 2582,3536 2610,3545 C 2606,3610 2617,3643 2641,3666 L 2637,3814 C 2654,3868 2677,3920 2711,3926 2762,3992 2749,4078 2778,4105 2837,4135 2842,4237 2806,4281 2792,4407 2877,4429 2913,4445 L 2915,4388 2967,4381 C 3002,4444 3049,4499 3098,4519 L 3089,4569 3118,4585 3128,4650 C 3225,4707 3221,4720 3202,4817 L 3195,4862 3047,4977 2976,4970 C 2924,4905 2991,4876 2877,4701 L 2835,4697 2785,4645 C 2721,4545 2616,4450 2524,4391 L 2462,4330 2459,4298 2437,4280 2409,4278 2389,4252 C 2385,4209 2355,4205 2325,4213 L 2294,4186 2286,4113 C 2290,4093 2295,4075 2310,4073 L 2310,4000 C 2360,3955 2327,3803 2313,3779 L 2308,3737 C 2275,3729 2279,3695 2277,3661 2109,3604 2136,3538 2005,3449 1925,3374 1861,3490 1802,3337 1707,3315 1754,3294 1707,3266 1624,3249 1601,3253 1594,3161 L 1447,3010 1447,2955 1529,2963 1569,3009 1620,3008 1655,2999 1722,3060 1760,3068 1809,3124 1839,3104 1812,3057 C 1854,3002 1794,2974 1767,3005 L 1730,2996 1693,2976 1686,2918 1746,2916 1741,2803 C 1791,2742 1763,2698 1725,2679 1708,2620 1662,2589 1626,2552 1594,2474 1512,2377 1451,2374 1429,2328 1413,2314 1382,2319 L 1296,2236 C 1301,2191 1293,2163 1274,2145 1290,2007 1271,1990 1204,1981 1252,1835 1204,1800 1157,1755 1163,1680 1140,1654 1110,1623 1108,1586 1104,1567 1073,1551 1080,1421 1009,1271 961,1176 L 969,1100 Z"/>
      </g>
     </g>
    </g>
   </g>
  </g>
 </g>
</svg>